SplineFontDB: 3.2
FontName: CopperplateSansCC
FullName: Copperplate Sans CC
FamilyName: Copperplate Sans CC
Weight: Heavy
Copyright: Copyright 2020 The Cowboy Collective (https://cowboycollective.cc)
UComments: "Made with love by indestructible type* for the Cowboy Collective"
Version: 001.000
ItalicAngle: 0
UnderlinePosition: -100
UnderlineWidth: 50
Ascent: 800
Descent: 200
InvalidEm: 0
LayerCount: 2
Layer: 0 0 "Back" 1
Layer: 1 0 "Fore" 0
PreferredKerning: 4
XUID: [1021 31 -699969567 16188444]
FSType: 0
OS2Version: 0
OS2_WeightWidthSlopeOnly: 0
OS2_UseTypoMetrics: 0
CreationTime: 1465610489
ModificationTime: 1661592248
PfmFamily: 33
TTFWeight: 400
TTFWidth: 5
LineGap: 0
VLineGap: 0
OS2TypoAscent: 1030
OS2TypoAOffset: 0
OS2TypoDescent: -350
OS2TypoDOffset: 0
OS2TypoLinegap: 0
OS2WinAscent: 1030
OS2WinAOffset: 0
OS2WinDescent: 350
OS2WinDOffset: 0
HheadAscent: 1030
HheadAOffset: 0
HheadDescent: -350
HheadDOffset: 0
OS2CapHeight: 700
OS2XHeight: 460
OS2Vendor: 'it* '
Lookup: 258 0 0 "'kern' Horizontal Kerning lookup 0" { "kerning like they all do" [150,0,6] } ['kern' ('DFLT' <'dflt' > 'grek' <'dflt' > 'latn' <'dflt' > ) ]
MarkAttachClasses: 1
DEI: 91125
KernClass2: 9 7 "kerning like they all do"
 13 A backslash a
 7 D O d o
 11 E K X e k x
 7 V W v w
 3 L l
 7 F T f t
 3 Y y
 7 J U j u
 13 slash A J a j
 15 C G O Q c g o q
 17 V W backslash v w
 3 X x
 3 T t
 3 Y y
 0 {} 0 {} 0 {} 0 {} 0 {} 0 {} 0 {} 0 {} 10 {} -30 {} -60 {} 10 {} -60 {} -80 {} 0 {} -30 {} 0 {} -30 {} -30 {} -10 {} -25 {} 0 {} 10 {} -30 {} 5 {} 10 {} 20 {} 0 {} 0 {} -60 {} -40 {} 30 {} 0 {} 0 {} 0 {} 0 {} 20 {} -20 {} -60 {} 0 {} -90 {} -70 {} 0 {} -60 {} -10 {} 20 {} 20 {} 40 {} 30 {} 0 {} 0 {} -25 {} 0 {} 0 {} 30 {} 30 {} 0 {} -30 {} 0 {} 0 {} 0 {} 0 {} 0 {}

StartChar: H
Encoding: 72 72 0
GlifName: H_
Width: 835
VWidth: 0
Flags: HMW
AnchorPoint: "top" 419 700 basechar 0
AnchorPoint: "bottom" 419 0 basechar 0
AnchorPoint: "cedilla" 142 0 basechar 0
LayerCount: 2
Fore
SplineSet
635 700 m 257
 750 700 l 257
 750 0 l 257
 635 0 l 257
 635 700 l 257
147 310 m 257
 147 405 l 257
 720 405 l 257
 720 310 l 257
 147 310 l 257
85 700 m 257
 200 700 l 257
 200 0 l 257
 85 0 l 257
 85 700 l 257
EndSplineSet
EndChar

StartChar: O
Encoding: 79 79 1
GlifName: O_
Width: 910
VWidth: 0
Flags: HMW
AnchorPoint: "top" 455 700 basechar 0
AnchorPoint: "bottom" 455 0 basechar 0
LayerCount: 2
Fore
SplineSet
165 350 m 260
 165 186 302 90 455 90 c 260
 608 90 745 186 745 350 c 260
 745 514 608 610 455 610 c 260
 302 610 165 514 165 350 c 260
50 350 m 260
 50 584 236 710 455 710 c 260
 674 710 860 584 860 350 c 260
 860 116 674 -10 455 -10 c 260
 236 -10 50 116 50 350 c 260
EndSplineSet
EndChar

StartChar: I
Encoding: 73 73 2
GlifName: I_
Width: 290
VWidth: 0
Flags: HMW
AnchorPoint: "top" 145 700 basechar 0
AnchorPoint: "bottom" 145 0 basechar 0
AnchorPoint: "cedilla" 145 0 basechar 0
LayerCount: 2
Fore
SplineSet
85 700 m 257
 205 700 l 257
 205 0 l 257
 85 0 l 257
 85 700 l 257
  Spiro
    85 700 v
    205 700 v
    205 0 v
    85 0 v
    0 0 z
  EndSpiro
EndSplineSet
EndChar

StartChar: C
Encoding: 67 67 3
GlifName: C_
Width: 875
VWidth: 0
Flags: HMW
AnchorPoint: "top" 475 700 basechar 0
AnchorPoint: "bottom" 475 0 basechar 0
AnchorPoint: "top" 475 0 entry 0
AnchorPoint: "cedilla" 475 0 basechar 0
LayerCount: 2
Fore
SplineSet
165 350 m 256
 165 202 277 90 475 90 c 256
 594 90 699 150 758 202 c 257
 820 115 l 257
 751 63 637 -10 475 -10 c 256
 212 -10 50 136 50 350 c 256
 50 564 212 710 475 710 c 256
 637 710 741 647 800 605 c 257
 739 516 l 257
 690 558 594 610 475 610 c 256
 277 610 165 498 165 350 c 256
EndSplineSet
EndChar

StartChar: E
Encoding: 69 69 4
GlifName: E_
Width: 746
VWidth: 0
Flags: HMW
AnchorPoint: "top" 387 700 basechar 0
AnchorPoint: "bottom" 373 0 basechar 0
AnchorPoint: "cedilla" 578 0 basechar 0
LayerCount: 2
Fore
SplineSet
157 0 m 257
 157 100 l 257
 701 100 l 257
 701 0 l 257
 157 0 l 257
157 600 m 257
 157 700 l 257
 701 700 l 257
 701 600 l 257
 157 600 l 257
157 310 m 257
 157 405 l 257
 531 405 l 257
 531 310 l 257
 157 310 l 257
85 700 m 257
 195 700 l 257
 195 0 l 257
 85 0 l 257
 85 700 l 257
EndSplineSet
EndChar

StartChar: F
Encoding: 70 70 6
GlifName: F_
Width: 731
VWidth: 0
Flags: HMW
AnchorPoint: "top" 407 700 basechar 0
AnchorPoint: "bottom" 139 0 basechar 0
LayerCount: 2
Fore
SplineSet
157 600 m 257
 157 700 l 257
 701 700 l 257
 701 600 l 257
 157 600 l 257
157 310 m 257
 157 405 l 257
 541 405 l 257
 541 310 l 257
 157 310 l 257
85 700 m 257
 195 700 l 257
 195 0 l 257
 85 0 l 257
 85 700 l 257
EndSplineSet
EndChar

StartChar: G
Encoding: 71 71 7
GlifName: G_
Width: 875
VWidth: 0
Flags: HMW
AnchorPoint: "top" 475 700 basechar 0
AnchorPoint: "bottom" 475 0 basechar 0
AnchorPoint: "cedilla" 475 0 basechar 0
LayerCount: 2
Fore
SplineSet
805 360 m 257
 805 265 l 257
 472 265 l 257
 472 360 l 257
 805 360 l 257
690 360 m 257
 805 360 l 257
 805 85 l 257
 690 85 l 257
 690 360 l 257
165 350 m 256
 165 192 279 90 475 90 c 256
 594 90 686 130 745 172 c 257
 805 85 l 257
 736 43 647 -10 475 -10 c 256
 231 -10 50 126 50 350 c 256
 50 574 231 710 475 710 c 256
 647 710 741 647 800 605 c 257
 738 516 l 257
 689 558 594 610 475 610 c 256
 279 610 165 508 165 350 c 256
EndSplineSet
EndChar

StartChar: T
Encoding: 84 84 8
GlifName: T_
Width: 685
VWidth: 0
Flags: HMW
AnchorPoint: "top" 341 700 basechar 0
AnchorPoint: "bottom" 344 0 basechar 0
AnchorPoint: "cedilla" 344 0 basechar 0
LayerCount: 2
Fore
SplineSet
10 605 m 257
 10 700 l 257
 675 700 l 257
 675 605 l 257
 10 605 l 257
285 700 m 257
 400 700 l 257
 400 0 l 257
 285 0 l 257
 285 700 l 257
EndSplineSet
EndChar

StartChar: L
Encoding: 76 76 9
GlifName: L_
Width: 720
VWidth: 0
Flags: HMW
AnchorPoint: "top" 142 700 basechar 0
AnchorPoint: "bottom" 398 0 basechar 0
AnchorPoint: "cedilla" 398 0 basechar 0
LayerCount: 2
Fore
SplineSet
152 0 m 257
 152 100 l 257
 705 100 l 257
 705 0 l 257
 152 0 l 257
85 700 m 257
 200 700 l 257
 200 0 l 257
 85 0 l 257
 85 700 l 257
EndSplineSet
EndChar

StartChar: D
Encoding: 68 68 10
GlifName: D_
Width: 852
VWidth: 0
Flags: HMW
AnchorPoint: "top" 387 700 basechar 0
AnchorPoint: "bottom" 356 0 basechar 0
AnchorPoint: "cedilla" 356 0 basechar 0
LayerCount: 2
Fore
SplineSet
85 700 m 257
 195 700 l 257
 195 0 l 257
 85 0 l 257
 85 700 l 257
447 0 m 258
 132 0 l 257
 132 100 l 257
 437 100 l 258
 595 100 677 187 677 350 c 256
 677 513 595 600 437 600 c 258
 132 600 l 257
 132 700 l 257
 447 700 l 258
 651 700 797 569 797 350 c 256
 797 131 651 0 447 0 c 258
EndSplineSet
EndChar

StartChar: Q
Encoding: 81 81 11
GlifName: Q_
Width: 870
VWidth: 0
Flags: HMW
AnchorPoint: "top" 435 700 basechar 0
LayerCount: 2
Fore
SplineSet
50 350 m 256
 50 574 216 710 435 710 c 256
 654 710 820 574 820 350 c 256
 820 126 654 -10 435 -10 c 256
 216 -10 50 126 50 350 c 256
165 350 m 256
 165 186 272 85 435 85 c 256
 598 85 705 186 705 350 c 256
 705 514 598 615 435 615 c 256
 272 615 165 514 165 350 c 256
426 192 m 0
 586 192 593 0 763 -10 c 1
 696 -91 l 1
 543 -32 480 135 380 135 c 0
 351 135 326 122 326 87 c 1
 311 87 l 1
 311 137 351 192 426 192 c 0
EndSplineSet
EndChar

StartChar: A
Encoding: 65 65 12
GlifName: A_
Width: 784
VWidth: 0
Flags: HMW
AnchorPoint: "cedilla" 709 0 basechar 0
AnchorPoint: "bottom" 392 0 basechar 0
AnchorPoint: "top" 390 700 basechar 0
LayerCount: 2
Fore
SplineSet
179 200 m 257
 209 290 l 257
 579 290 l 257
 609 200 l 257
 179 200 l 257
392 581 m 257
 132 0 l 257
 10 0 l 257
 340 700 l 257
 444 700 l 1
 774 0 l 257
 652 0 l 257
 392 581 l 257
EndSplineSet
EndChar

StartChar: R
Encoding: 82 82 13
GlifName: R_
Width: 785
VWidth: 0
Flags: HMW
AnchorPoint: "top" 363 700 basechar 0
AnchorPoint: "bottom" 398 0 basechar 0
AnchorPoint: "cedilla" 138 0 basechar 0
LayerCount: 2
Fore
SplineSet
85 700 m 257
 195 700 l 257
 195 0 l 257
 85 0 l 257
 85 700 l 257
132 600 m 257
 132 700 l 257
 505 700 l 258
 630 700 743 659 743 505 c 256
 743 352 630 315 505 315 c 258
 132 315 l 257
 132 410 l 257
 495 410 l 258
 584 410 628 439 628 505 c 256
 628 571 584 600 495 600 c 258
 132 600 l 257
375 360 m 257
 495 360 l 257
 760 0 l 257
 625 0 l 257
 375 360 l 257
EndSplineSet
EndChar

StartChar: V
Encoding: 86 86 14
GlifName: V_
Width: 774
VWidth: 0
Flags: HMW
AnchorPoint: "top" 387 700 basechar 0
AnchorPoint: "bottom" 388 0 basechar 0
LayerCount: 2
Fore
SplineSet
387 124 m 257
 632 700 l 257
 759 700 l 257
 439 0 l 257
 335 0 l 1
 15 700 l 257
 142 700 l 257
 387 124 l 257
EndSplineSet
EndChar

StartChar: M
Encoding: 77 77 15
GlifName: M_
Width: 930
VWidth: 0
Flags: HMW
AnchorPoint: "top" 465 700 basechar 0
AnchorPoint: "bottom" 465 0 basechar 0
LayerCount: 2
Fore
SplineSet
195 540 m 257
 195 700 l 1
 230 700 l 257
 465 203 l 257
 700 700 l 257
 735 700 l 1
 735 540 l 257
 465 -10 l 257
 195 540 l 257
735 700 m 257
 845 700 l 257
 845 0 l 257
 735 0 l 257
 735 700 l 257
85 700 m 257
 195 700 l 257
 195 0 l 257
 85 0 l 257
 85 700 l 257
EndSplineSet
EndChar

StartChar: W
Encoding: 87 87 16
GlifName: W_
Width: 1140
VWidth: 0
Flags: HMW
AnchorPoint: "top" 568 700 basechar 0
AnchorPoint: "bottom" 568 0 basechar 0
LayerCount: 2
Fore
SplineSet
820 131 m 257
 1010 700 l 257
 1125 700 l 257
 875 0 l 257
 765 0 l 1
 525 650 l 257
 515 700 l 1
 625 700 l 257
 820 131 l 257
320 131 m 257
 515 700 l 257
 625 700 l 1
 615 650 l 257
 375 0 l 257
 265 0 l 1
 15 700 l 257
 130 700 l 257
 320 131 l 257
EndSplineSet
EndChar

StartChar: N
Encoding: 78 78 17
GlifName: N_
Width: 860
VWidth: 0
Flags: HMW
AnchorPoint: "top" 469 700 basechar 0
AnchorPoint: "bottom" 429 0 basechar 0
LayerCount: 2
Fore
SplineSet
193 570 m 257
 195 700 l 1
 225 700 l 257
 665 163 l 257
 655 0 l 257
 193 570 l 257
665 700 m 257
 775 700 l 257
 775 0 l 257
 655 0 l 1
 665 163 l 257
 665 700 l 257
85 700 m 257
 195 700 l 257
 195 0 l 257
 85 0 l 257
 85 700 l 257
EndSplineSet
EndChar

StartChar: X
Encoding: 88 88 19
GlifName: X_
Width: 685
VWidth: 0
Flags: HMW
AnchorPoint: "top" 346 700 basechar 0
AnchorPoint: "bottom" 343 0 basechar 0
LayerCount: 2
Fore
SplineSet
535 700 m 257
 675 700 l 257
 413 362 l 257
 680 0 l 257
 550 0 l 257
 345 290 l 257
 135 0 l 257
 5 0 l 257
 278 362 l 257
 20 700 l 257
 160 700 l 257
 346 434 l 257
 535 700 l 257
EndSplineSet
EndChar

StartChar: K
Encoding: 75 75 20
GlifName: K_
Width: 765
VWidth: 0
Flags: HMW
AnchorPoint: "top" 376 700 basechar 0
AnchorPoint: "bottom" 370 0 basechar 0
AnchorPoint: "cedilla" 139 0 basechar 0
LayerCount: 2
Fore
SplineSet
310 380 m 257
 400 428 l 257
 745 0 l 257
 606 0 l 257
 310 380 l 257
612 700 m 257
 750 700 l 257
 180 230 l 257
 110 299 l 257
 612 700 l 257
85 700 m 257
 195 700 l 257
 195 0 l 257
 85 0 l 257
 85 700 l 257
EndSplineSet
EndChar

StartChar: Y
Encoding: 89 89 21
GlifName: Y_
Width: 701
VWidth: 0
Flags: HMW
AnchorPoint: "top" 348 700 basechar 0
AnchorPoint: "bottom" 348 0 basechar 0
LayerCount: 2
Fore
SplineSet
571 700 m 257
 706 700 l 257
 405 302 l 257
 405 0 l 257
 291 0 l 257
 291 301 l 257
 -5 700 l 257
 135 700 l 257
 348 396 l 257
 571 700 l 257
EndSplineSet
EndChar

StartChar: B
Encoding: 66 66 22
GlifName: B_
Width: 803
VWidth: 0
Flags: HMW
AnchorPoint: "top" 337 700 basechar 0
AnchorPoint: "bottom" 333 0 basechar 0
LayerCount: 2
Fore
SplineSet
156 341 m 257
 156 405 l 257
 475 405 l 258
 565 405 625 429 625 505 c 256
 625 584 565 600 485 600 c 258
 189 600 l 257
 189 100 l 257
 500 100 l 258
 590 100 643 119 643 215 c 256
 643 281 590 315 500 315 c 258
 156 315 l 257
 156 376 l 257
 525 376 l 258
 670 376 753 309 753 190 c 256
 753 71 670 0 525 0 c 258
 85 0 l 257
 85 700 l 257
 505 700 l 258
 650 700 735 629 735 520 c 256
 735 374 600 341 495 341 c 258
 156 341 l 257
EndSplineSet
EndChar

StartChar: Z
Encoding: 90 90 23
GlifName: Z_
Width: 744
VWidth: 0
Flags: HMW
AnchorPoint: "top" 338 700 basechar 0
AnchorPoint: "bottom" 393 0 basechar 0
LayerCount: 2
Fore
SplineSet
40 600 m 257
 40 700 l 257
 699 700 l 257
 699 685 l 1
 230 100 l 257
 685 100 l 257
 685 0 l 257
 30 0 l 257
 30 15 l 1
 502 600 l 257
 40 600 l 257
EndSplineSet
EndChar

StartChar: J
Encoding: 74 74 25
GlifName: J_
Width: 622
VWidth: 0
Flags: HMW
AnchorPoint: "top" 453 700 basechar 0
AnchorPoint: "bottom" 284 0 basechar 0
LayerCount: 2
Fore
SplineSet
80 161 m 257
 114 130 185 80 281 80 c 256
 371 80 427 106 427 205 c 258
 427 700 l 257
 542 700 l 257
 542 180 l 258
 542 51 428 -20 274 -20 c 256
 171 -20 61 30 16 70 c 257
 80 161 l 257
EndSplineSet
EndChar

StartChar: P
Encoding: 80 80 50
GlifName: P_
Width: 753
VWidth: 0
Flags: HMW
AnchorPoint: "top" 343 700 basechar 0
AnchorPoint: "bottom" 143 0 basechar 0
LayerCount: 2
Fore
SplineSet
85 700 m 257
 195 700 l 257
 195 0 l 257
 85 0 l 257
 85 700 l 257
132 600 m 257
 132 700 l 257
 480 700 l 258
 605 700 718 654 718 500 c 256
 718 347 605 300 480 300 c 258
 132 300 l 257
 132 400 l 257
 470 400 l 258
 559 400 603 434 603 500 c 256
 603 566 559 600 470 600 c 258
 132 600 l 257
EndSplineSet
EndChar

StartChar: U
Encoding: 85 85 51
GlifName: U_
Width: 810
VWidth: 0
Flags: HMW
AnchorPoint: "top" 409 700 basechar 0
AnchorPoint: "bottom" 405 0 basechar 0
AnchorPoint: "cedilla" 405 0 basechar 0
LayerCount: 2
Fore
SplineSet
75 700 m 257
 190 700 l 257
 190 242 l 258
 190 136 275 90 405 90 c 256
 545 90 620 136 620 242 c 258
 620 700 l 257
 735 700 l 257
 735 230 l 258
 735 61 580 -10 405 -10 c 256
 230 -10 75 61 75 230 c 258
 75 700 l 257
EndSplineSet
EndChar

StartChar: S
Encoding: 83 83 52
GlifName: S_
Width: 764
VWidth: 0
Flags: HMW
AnchorPoint: "top" 380 700 basechar 0
AnchorPoint: "bottom" 410 0 basechar 0
AnchorPoint: "cedilla" 410 0 basechar 0
LayerCount: 2
Fore
SplineSet
108 189 m 257
 174 145 261 88 405 88 c 256
 550 88 618 131 618 196 c 256
 618 261 558.91796875 293.310546875 389 305 c 256
 175.069335938 319.717773438 62 382 62 509 c 256
 62 643 201 720 380 720 c 256
 543 720 648 669 713 625 c 257
 651 541 l 257
 604 581 492 625 380 625 c 256
 254 625 172 588 172 516 c 256
 172 440 258.201171875 417.491210938 418 405 c 256
 621.58984375 389.0859375 734 322 734 200 c 256
 734 72 600.5859375 -12.8974609375 400 -10 c 256
 225.658840507 -7.48164449749 105.000002461 57.1401024066 50 102 c 257
 108 189 l 257
EndSplineSet
EndChar

StartChar: at
Encoding: 64 64 53
GlifName: at
Width: 770
VWidth: 0
Flags: HMW
LayerCount: 2
Fore
SplineSet
276 320 m 256
 276 271 305 250 348 250 c 256
 398 250 445 264 445 370 c 256
 445 411 418 440 378 440 c 256
 324 440 276 396 276 320 c 256
180 312 m 256
 180 461 286 530 371 530 c 256
 456 530 501 449 501 370 c 256
 501 231 423 160 328 160 c 256
 255 160 180 213 180 312 c 256
5 320 m 256
 5 539 181 710 415 710 c 256
 649 710 765 549 765 390 c 256
 765 214 631 155 556 155 c 256
 495 155 456 204 456 270 c 257
 439 270 l 257
 475 520 l 257
 565 520 l 257
 534 309 l 258
 533 302 532 290 532 282 c 256
 532 258 538 236 571 236 c 256
 601 236 675 264 675 390 c 256
 675 523 593 625 415 625 c 256
 227 625 95 498 95 320 c 256
 95 167 187 75 365 75 c 256
 435 75 501 86 556 117 c 257
 592 45 l 257
 545 15 469 -10 365 -10 c 256
 131 -10 5 121 5 320 c 256
EndSplineSet
EndChar

StartChar: period
Encoding: 46 46 54
GlifName: period
Width: 300
VWidth: 0
Flags: HMW
LayerCount: 2
Fore
SplineSet
80 55 m 260
 80 93 109 125 150 125 c 260
 191 125 220 93 220 55 c 260
 220 17 191 -15 150 -15 c 260
 109 -15 80 17 80 55 c 260
EndSplineSet
EndChar

StartChar: comma
Encoding: 44 44 55
GlifName: comma
Width: 307
VWidth: 2000
Flags: HMW
LayerCount: 2
Fore
SplineSet
75 54 m 0
 75 95 111 125 152 125 c 0
 200 125 232 90 232 34 c 4
 232 -52 193 -131 123 -146 c 1
 123 -109 l 1
 158 -88 178 -42 178 19 c 5
 201 19 l 1
 201 14 190 -15 148 -15 c 0
 102 -15 75 13 75 54 c 0
EndSplineSet
EndChar

StartChar: quotedbl
Encoding: 34 34 58
GlifName: quotedbl
Width: 455
VWidth: 0
Flags: HMW
LayerCount: 2
Fore
SplineSet
270 750 m 257
 385 750 l 257
 365 500 l 257
 290 500 l 257
 270 750 l 257
70 750 m 257
 185 750 l 257
 165 500 l 257
 90 500 l 257
 70 750 l 257
EndSplineSet
EndChar

StartChar: exclam
Encoding: 33 33 59
GlifName: exclam
Width: 350
VWidth: 0
Flags: HMW
LayerCount: 2
Fore
SplineSet
105 55 m 256
 105 93 134 125 175 125 c 256
 216 125 245 93 245 55 c 256
 245 17 216 -15 175 -15 c 256
 134 -15 105 17 105 55 c 256
110 700 m 257
 240 700 l 257
 200 195 l 257
 150 195 l 257
 110 700 l 257
EndSplineSet
EndChar

StartChar: quotesingle
Encoding: 39 39 60
GlifName: quotesingle
Width: 255
VWidth: 0
Flags: HMW
LayerCount: 2
Fore
SplineSet
80 750 m 257
 195 750 l 257
 165 500 l 257
 90 500 l 257
 80 750 l 257
EndSplineSet
EndChar

StartChar: numbersign
Encoding: 35 35 61
GlifName: numbersign
Width: 605
VWidth: 0
Flags: HMW
LayerCount: 2
Fore
SplineSet
60 440 m 257
 60 525 l 257
 575 525 l 257
 575 440 l 257
 60 440 l 257
30 180 m 257
 30 265 l 257
 545 265 l 257
 545 180 l 257
 30 180 l 257
425 700 m 257
 520 700 l 257
 390 0 l 257
 295 0 l 257
 425 700 l 257
215 700 m 257
 310 700 l 257
 180 0 l 257
 85 0 l 257
 215 700 l 257
EndSplineSet
EndChar

StartChar: hyphen
Encoding: 45 45 62
GlifName: hyphen
Width: 320
VWidth: 0
Flags: HMW
LayerCount: 2
Fore
SplineSet
20 235 m 257
 20 335 l 257
 300 335 l 257
 300 235 l 257
 20 235 l 257
EndSplineSet
EndChar

StartChar: dollar
Encoding: 36 36 63
GlifName: dollar
Width: 765
VWidth: 0
Flags: HMW
LayerCount: 2
Fore
SplineSet
445 740 m 257
 485 740 l 257
 485 -80 l 257
 445 -80 l 257
 445 740 l 257
305 740 m 257
 345 740 l 257
 345 -80 l 257
 305 -80 l 257
 305 740 l 257
118 163 m 257
 184 119 281 78 395 78 c 256
 510 78 606 123 606 206 c 256
 606 288 537.669921875 296.068359375 398 308 c 256
 213.993164062 323.719726562 97 374 97 501 c 256
 97 635 211 710 400 710 c 256
 533 710 618 664 693 611 c 257
 636 531 l 257
 589 573 492 620 390 620 c 256
 284 620 202 579 202 507 c 256
 202 426 298.137695312 409.642578125 428 398 c 256
 591.368164062 383.353515625 715 352 715 210 c 256
 715 62 571 -10 400 -10 c 256
 236 -10 125 43 70 87 c 257
 118 163 l 257
EndSplineSet
EndChar

StartChar: bar
Encoding: 124 124 64
GlifName: bar
Width: 304
VWidth: 0
Flags: HMW
LayerCount: 2
Fore
SplineSet
100 780 m 257
 204 780 l 257
 204 -220 l 257
 100 -220 l 257
 100 780 l 257
EndSplineSet
EndChar

StartChar: zero
Encoding: 48 48 65
GlifName: zero
Width: 810
VWidth: 0
Flags: HMW
LayerCount: 2
Fore
SplineSet
160 350 m 256
 160 186 272 90 405 90 c 256
 538 90 650 186 650 350 c 256
 650 514 538 610 405 610 c 256
 272 610 160 514 160 350 c 256
45 350 m 256
 45 574 216 710 405 710 c 256
 594 710 765 574 765 350 c 256
 765 126 594 -10 405 -10 c 256
 216 -10 45 126 45 350 c 256
EndSplineSet
EndChar

StartChar: one
Encoding: 49 49 66
GlifName: one
Width: 472
VWidth: 0
Flags: HMW
LayerCount: 2
Fore
SplineSet
100 495 m 257
 100 610 l 257
 215 660 l 257
 215 545 l 257
 100 495 l 257
212 700 m 257
 332 700 l 257
 332 0 l 257
 212 0 l 257
 212 700 l 257
EndSplineSet
EndChar

StartChar: two
Encoding: 50 50 67
GlifName: two
Width: 695
VWidth: 0
Flags: HMW
LayerCount: 2
Fore
SplineSet
30 0 m 257
 131 100 l 257
 665 100 l 257
 665 0 l 257
 30 0 l 257
30 0 m 257
 30 240 232.122070312 300.587890625 362 360 c 256
 417.864257812 385.5546875 517 425 517 511 c 256
 517 572 470 611 378 611 c 256
 278 611 197 552 147 476 c 257
 72 546 l 257
 142 645 241 711 378 711 c 256
 555 711 630 612 630 508 c 256
 630 386 546.068359375 330.010742188 440 284 c 256
 328.74609375 235.740234375 194 200 164 90 c 257
 30 0 l 257
EndSplineSet
EndChar

StartChar: four
Encoding: 52 52 68
GlifName: four
Width: 723
VWidth: 0
Flags: HMW
LayerCount: 2
Fore
SplineSet
30 130 m 257
 30 210 l 1
 458 700 l 257
 573 700 l 257
 573 0 l 257
 463 0 l 257
 463 176 l 257
 463 187 l 257
 463 570 l 257
 167 230 l 257
 498 230 l 257
 515 230 l 257
 683 230 l 257
 683 130 l 257
 30 130 l 257
EndSplineSet
EndChar

StartChar: slash
Encoding: 47 47 69
GlifName: slash
Width: 665
VWidth: 0
Flags: HMW
LayerCount: 2
Fore
SplineSet
610 700 m 257
 175 0 l 257
 55 0 l 257
 490 700 l 257
 610 700 l 257
EndSplineSet
EndChar

StartChar: backslash
Encoding: 92 92 70
GlifName: backslash
Width: 665
VWidth: 0
Flags: HMW
LayerCount: 2
Fore
SplineSet
55 700 m 257
 175 700 l 257
 610 0 l 257
 490 0 l 257
 55 700 l 257
EndSplineSet
EndChar

StartChar: eight
Encoding: 56 56 71
GlifName: eight
Width: 746
VWidth: 0
Flags: HMW
LayerCount: 2
Fore
SplineSet
70 524 m 260
 70 633 193 710 373 710 c 260
 553 710 676 633 676 524 c 260
 676 405 558 350 373 350 c 260
 188 350 70 405 70 524 c 260
176 521 m 260
 176 460 263 415 373 415 c 260
 483 415 570 460 570 521 c 260
 570 582 488 615 373 615 c 260
 258 615 176 582 176 521 c 260
45 195 m 260
 45 324 188 395 373 395 c 260
 558 395 701 324 701 195 c 260
 701 76 568 -10 373 -10 c 260
 178 -10 45 76 45 195 c 260
161 205 m 260
 161 129 243 85 373 85 c 260
 503 85 585 129 585 205 c 260
 585 271 513 330 373 330 c 260
 233 330 161 271 161 205 c 260
EndSplineSet
EndChar

StartChar: nine
Encoding: 57 57 72
GlifName: nine
Width: 717
VWidth: 2309
Flags: HMW
LayerCount: 2
Fore
SplineSet
318 90 m 1
 321 -10 l 1
 221 -10 114 35 50 84 c 1
 104 165 l 1
 156 129 238 90 318 90 c 1
168 460 m 0
 168 367 260 330 349 330 c 0
 432 330 548 359 548 469 c 1
 599 420 l 1
 599 303 468 230 337 230 c 0
 226 230 58 287 58 460 c 0
 58 620 173 710 344 710 c 0
 535 710 682 600 682 370 c 0
 682 137 543 -10 321 -10 c 1
 318 90 l 1
 462 90 579 178 579 350 c 1
 548 469 l 1
 548 563 453 610 344 610 c 0
 245 610 168 564 168 460 c 0
EndSplineSet
EndChar

StartChar: three
Encoding: 51 51 73
GlifName: three
Width: 747
VWidth: 0
Flags: HMW
LayerCount: 2
Fore
SplineSet
300 352 m 257
 300 420 l 257
 480 420 545 456 545 520 c 256
 545 582 490 616 400 616 c 256
 305 616 210 563 162 492 c 257
 91 566 l 257
 160 664 279 710 394 710 c 256
 564 710 667 636 667 534 c 256
 667 395 485 352 300 352 c 257
390 -10 m 256
 205 -10 114 64 64 105 c 257
 119 204 l 257
 159 150 250 90 380 90 c 256
 520 90 583 139 583 215 c 256
 583 301 500 332 300 332 c 257
 300 400 l 257
 525 400 702 355 702 206 c 256
 702 69 565 -10 390 -10 c 256
EndSplineSet
EndChar

StartChar: five
Encoding: 53 53 74
GlifName: five
Width: 732
VWidth: 0
Flags: HMW
LayerCount: 2
Fore
SplineSet
682 240 m 256
 682 71 551 -10 376 -10 c 256
 217 -10 104 65 58 127 c 257
 122 200 l 257
 163 155 249 90 376 90 c 256
 486 90 569 144 569 240 c 256
 569 336 486 386 396 386 c 256
 309 386 227 363 156 306 c 257
 85 380 l 1
 85 700 l 257
 629 700 l 257
 629 600 l 257
 185 600 l 257
 185 423 l 257
 218 440 277 486 402 486 c 256
 562 486 682 389 682 240 c 256
EndSplineSet
EndChar

StartChar: six
Encoding: 54 54 75
GlifName: six
Width: 694
VWidth: 2309
Flags: HMW
LayerCount: 2
Fore
SplineSet
394 610 m 1
 404 710 l 1
 494 710 568 676 622 637 c 1
 568 556 l 1
 526 582 464 610 394 610 c 1
549 240 m 0
 549 333 457 370 368 370 c 0
 285 370 169 341 169 231 c 1
 118 280 l 1
 118 397 249 470 380 470 c 0
 491 470 659 413 659 240 c 0
 659 80 544 -10 373 -10 c 0
 182 -10 35 100 35 330 c 0
 35 563 182 710 404 710 c 1
 394 610 l 1
 250 610 138 522 138 350 c 1
 169 231 l 1
 169 137 264 90 373 90 c 0
 472 90 549 136 549 240 c 0
EndSplineSet
EndChar

StartChar: seven
Encoding: 55 55 76
GlifName: seven
Width: 679
VWidth: 0
Flags: HMW
LayerCount: 2
Fore
SplineSet
30 600 m 257
 30 700 l 257
 649 700 l 257
 649 601 l 1
 283 0 l 257
 152 0 l 257
 529 600 l 257
 30 600 l 257
EndSplineSet
EndChar

StartChar: plus
Encoding: 43 43 77
GlifName: plus
Width: 675
VWidth: 0
Flags: HMW
LayerCount: 2
Fore
SplineSet
90 210 m 257
 90 300 l 257
 585 300 l 257
 585 210 l 257
 90 210 l 257
285 500 m 257
 385 500 l 257
 385 10 l 257
 285 10 l 257
 285 500 l 257
EndSplineSet
EndChar

StartChar: equal
Encoding: 61 61 78
GlifName: equal
Width: 615
VWidth: 0
Flags: HMW
LayerCount: 2
Fore
SplineSet
65 115 m 257
 65 215 l 257
 550 215 l 257
 550 115 l 257
 65 115 l 257
65 290 m 257
 65 390 l 257
 550 390 l 257
 550 290 l 257
 65 290 l 257
EndSplineSet
EndChar

StartChar: percent
Encoding: 37 37 79
GlifName: percent
Width: 921
VWidth: 0
Flags: HMW
LayerCount: 2
Fore
SplineSet
520 170 m 256
 520 264 583 350 698 350 c 256
 813 350 876 264 876 170 c 256
 876 76 813 -10 698 -10 c 256
 583 -10 520 76 520 170 c 256
611 170 m 256
 611 119 643 75 698 75 c 256
 753 75 785 119 785 170 c 256
 785 221 753 265 698 265 c 256
 643 265 611 221 611 170 c 256
45 530 m 256
 45 624 108 710 223 710 c 256
 338 710 401 624 401 530 c 256
 401 436 338 350 223 350 c 256
 108 350 45 436 45 530 c 256
136 530 m 256
 136 479 168 435 223 435 c 256
 278 435 310 479 310 530 c 256
 310 581 278 625 223 625 c 256
 168 625 136 581 136 530 c 256
683 700 m 257
 798 700 l 257
 238 0 l 257
 123 0 l 257
 683 700 l 257
EndSplineSet
EndChar

StartChar: ampersand
Encoding: 38 38 80
GlifName: ampersand
Width: 817
VWidth: 0
Flags: HMW
LayerCount: 2
Fore
SplineSet
598 185 m 256
 527.931640625 53.8837890625 420 -10 295 -10 c 256
 160 -10 35 65 35 204 c 256
 35 358 160 430 295 430 c 256
 420 430 520.100585938 339.108398438 577 238 c 256
 640.168945312 125.751953125 677 101 782 101 c 1
 782 0 l 257
 627 0 578.104492188 57.2626953125 500 185 c 256
 450.108398438 266.595703125 378 350 283 350 c 256
 208 350 150 300 150 213 c 256
 150 128 205 85 295 85 c 256
 394 85 468.762695312 138.811523438 526 235 c 256
 586.16796875 336.11328125 657 440 782 460 c 257
 782 360 l 1
 697 350 632.267578125 249.123046875 598 185 c 256
127 540 m 256
 127 644 215 715 340 715 c 256
 465 715 553 644 553 540 c 256
 553 436 465 380 340 380 c 256
 215 380 127 436 127 540 c 256
228 535 m 256
 228 474 278 445 340 445 c 256
 402 445 452 474 452 535 c 256
 452 596 402 630 340 630 c 256
 278 630 228 596 228 535 c 256
EndSplineSet
EndChar

StartChar: question
Encoding: 63 63 81
GlifName: question
Width: 557
VWidth: 0
Flags: HMW
LayerCount: 2
Fore
SplineSet
190 55 m 256
 190 93 219 125 260 125 c 256
 301 125 330 93 330 55 c 256
 330 17 301 -15 260 -15 c 256
 219 -15 190 17 190 55 c 256
367 549 m 256
 367 597 329 622 276 622 c 256
 222 622 171 589 135 530 c 257
 64 583 l 257
 110 663 180 710 289 710 c 256
 394 710 477 650 477 551 c 256
 477 382 297 426 297 234 c 0
 297 225 298 206 302 195 c 257
 217 195 l 257
 215 213 213 229 213 247 c 0
 213 457 367 429 367 549 c 256
EndSplineSet
EndChar

StartChar: parenleft
Encoding: 40 40 82
GlifName: parenleft
Width: 325
VWidth: 0
Flags: HMW
LayerCount: 2
Fore
SplineSet
205 780 m 257
 305 780 l 257
 225 630 175 480 175 290 c 256
 175 100 225 -50 305 -200 c 257
 205 -200 l 257
 115 -50 60 80 60 290 c 256
 60 500 115 630 205 780 c 257
EndSplineSet
EndChar

StartChar: parenright
Encoding: 41 41 83
GlifName: parenright
Width: 325
VWidth: 0
Flags: HMW
LayerCount: 2
Fore
SplineSet
120 -200 m 257
 20 -200 l 257
 100 -50 150 100 150 290 c 256
 150 480 100 630 20 780 c 257
 120 780 l 257
 210 630 265 500 265 290 c 256
 265 80 210 -50 120 -200 c 257
EndSplineSet
EndChar

StartChar: asterisk
Encoding: 42 42 84
GlifName: asterisk
Width: 483
VWidth: 0
Flags: HMW
LayerCount: 2
Fore
SplineSet
406 619 m 257
 441 514 l 257
 247 483 l 257
 232 531 l 257
 406 619 l 257
397 395 m 257
 308 329 l 257
 219 504 l 257
 260 533 l 257
 397 395 l 257
182 326 m 257
 92 391 l 257
 230 530 l 257
 271 500 l 257
 182 326 l 257
43 513 m 257
 77 618 l 257
 252 529 l 257
 236 481 l 257
 43 513 l 257
189 700 m 257
 299 700 l 257
 269 505 l 257
 219 505 l 257
 189 700 l 257
EndSplineSet
EndChar

StartChar: less
Encoding: 60 60 85
GlifName: less
Width: 640
VWidth: 0
Flags: HMW
LayerCount: 2
Fore
SplineSet
217 262 m 257
 575 105 l 257
 575 5 l 257
 65 225 l 257
 65 290 l 257
 575 510 l 257
 575 410 l 257
 217 262 l 257
EndSplineSet
EndChar

StartChar: greater
Encoding: 62 62 86
GlifName: greater
Width: 640
VWidth: 0
Flags: HMW
LayerCount: 2
Fore
SplineSet
423 253 m 257
 65 410 l 257
 65 510 l 257
 575 290 l 257
 575 225 l 257
 65 5 l 257
 65 105 l 257
 423 253 l 257
EndSplineSet
EndChar

StartChar: bracketleft
Encoding: 91 91 87
GlifName: bracketleft
Width: 331
VWidth: 0
Flags: HMW
LayerCount: 2
Fore
SplineSet
210 680 m 257
 210 -120 l 257
 311 -120 l 257
 311 -220 l 257
 100 -220 l 257
 100 780 l 257
 311 780 l 257
 311 680 l 257
 210 680 l 257
EndSplineSet
EndChar

StartChar: bracketright
Encoding: 93 93 88
GlifName: bracketright
Width: 331
VWidth: 0
Flags: HMW
LayerCount: 2
Fore
SplineSet
121 -120 m 257
 121 680 l 257
 20 680 l 257
 20 780 l 257
 231 780 l 257
 231 -220 l 257
 20 -220 l 257
 20 -120 l 257
 121 -120 l 257
EndSplineSet
EndChar

StartChar: asciicircum
Encoding: 94 94 89
GlifName: asciicircum
Width: 570
VWidth: 0
Flags: HMW
LayerCount: 2
Fore
SplineSet
285 621 m 257
 165 460 l 257
 45 460 l 257
 245 710 l 257
 325 710 l 257
 525 460 l 257
 405 460 l 257
 285 621 l 257
EndSplineSet
EndChar

StartChar: underscore
Encoding: 95 95 90
GlifName: underscore
Width: 500
VWidth: 0
Flags: HMW
LayerCount: 2
Fore
SplineSet
0 -153 m 261
 0 -78 l 257
 500 -78 l 257
 500 -153 l 261
 0 -153 l 261
EndSplineSet
EndChar

StartChar: grave
Encoding: 96 96 91
GlifName: grave
Width: 375
VWidth: 0
Flags: HMW
LayerCount: 2
Fore
SplineSet
71 656 m 257
 160 715 l 257
 310 555 l 257
 251 506 l 257
 71 656 l 257
EndSplineSet
EndChar

StartChar: braceleft
Encoding: 123 123 92
GlifName: braceleft
Width: 341
VWidth: 0
Flags: HMW
LayerCount: 2
Fore
SplineSet
208 640 m 258
 208 490 l 258
 208 371 174 270 65 270 c 257
 65 310 l 257
 174 310 208 209 208 90 c 258
 208 -60 l 258
 208 -86 226 -110 256 -110 c 258
 291 -110 l 257
 291 -200 l 257
 231 -200 l 258
 187 -200 98 -159 98 -60 c 258
 98 150 l 258
 98 216 80 235 50 245 c 257
 50 335 l 257
 80 345 98 364 98 430 c 258
 98 640 l 258
 98 739 187 780 231 780 c 258
 291 780 l 257
 291 690 l 257
 256 690 l 258
 226 690 208 666 208 640 c 258
EndSplineSet
EndChar

StartChar: braceright
Encoding: 125 125 93
GlifName: braceright
Width: 341
VWidth: 0
Flags: HMW
LayerCount: 2
Fore
SplineSet
133 -60 m 258
 133 90 l 258
 133 209 167 310 276 310 c 257
 276 270 l 257
 167 270 133 371 133 490 c 258
 133 640 l 258
 133 666 115 690 85 690 c 258
 50 690 l 257
 50 780 l 257
 110 780 l 258
 154 780 243 739 243 640 c 258
 243 430 l 258
 243 364 261 345 291 335 c 257
 291 245 l 257
 261 235 243 216 243 150 c 258
 243 -60 l 258
 243 -159 154 -200 110 -200 c 258
 50 -200 l 257
 50 -110 l 257
 85 -110 l 258
 115 -110 133 -86 133 -60 c 258
EndSplineSet
EndChar

StartChar: asciitilde
Encoding: 126 126 94
GlifName: asciitilde
Width: 575
VWidth: 0
Flags: HMW
LayerCount: 2
Fore
SplineSet
157 176 m 257
 63 176 l 257
 61 183 60 206 60 215 c 256
 60 236 66 271 84 295 c 256
 110 330 147 337 189 337 c 256
 228 337 270.41015625 318.84765625 307 294 c 256
 335.127960096 274.898691772 362 257 390 257 c 256
 414 257 422 264 422 291 c 256
 422 299 419 313 415 323 c 257
 511 323 l 257
 513 315 515 290 515 280 c 256
 515 260 510 222 493 199 c 256
 467 165 435 162 399 162 c 256
 365 162 322 184 289 205 c 256
 257.10793798 225.294948558 218 243 193 243 c 256
 162 243 148 228 148 203 c 256
 148 196 151 184 157 176 c 257
EndSplineSet
EndChar

StartChar: uni2010
Encoding: 8208 8208 97
GlifName: uni2010
Width: 320
Flags: HW
LayerCount: 2
Fore
SplineSet
20 235 m 257
 20 335 l 257
 300 335 l 257
 300 235 l 257
 20 235 l 257
EndSplineSet
EndChar

StartChar: uni2011
Encoding: 8209 8209 98
GlifName: uni2011
Width: 320
Flags: HW
LayerCount: 2
Fore
SplineSet
20 235 m 257
 20 335 l 257
 300 335 l 257
 300 235 l 257
 20 235 l 257
EndSplineSet
EndChar

StartChar: figuredash
Encoding: 8210 8210 99
GlifName: figuredash
Width: 446
Flags: HW
LayerCount: 2
Fore
SplineSet
20 235 m 257
 20 335 l 257
 426 335 l 257
 426 235 l 257
 20 235 l 257
EndSplineSet
EndChar

StartChar: endash
Encoding: 8211 8211 100
GlifName: endash
Width: 531
Flags: HW
LayerCount: 2
Fore
SplineSet
20 235 m 257
 20 335 l 257
 511 335 l 257
 511 235 l 257
 20 235 l 257
EndSplineSet
EndChar

StartChar: emdash
Encoding: 8212 8212 101
GlifName: emdash
Width: 815
Flags: HW
LayerCount: 2
Fore
SplineSet
20 235 m 257
 20 335 l 257
 795 335 l 257
 795 235 l 257
 20 235 l 257
EndSplineSet
EndChar

StartChar: uni2015
Encoding: 8213 8213 102
GlifName: uni2015
Width: 901
Flags: HW
LayerCount: 2
Fore
SplineSet
20 235 m 257
 20 335 l 257
 881 335 l 257
 881 235 l 257
 20 235 l 257
EndSplineSet
EndChar

StartChar: perthousand
Encoding: 8240 8240 109
GlifName: perthousand
Width: 1317
VWidth: 0
Flags: HW
LayerCount: 2
Fore
SplineSet
926 170 m 256
 926 264 989 350 1104 350 c 256
 1219 350 1282 264 1282 170 c 256
 1282 76 1219 -10 1104 -10 c 256
 989 -10 926 76 926 170 c 256
1017 170 m 256
 1017 119 1049 75 1104 75 c 256
 1159 75 1191 119 1191 170 c 256
 1191 221 1159 265 1104 265 c 256
 1049 265 1017 221 1017 170 c 256
510 170 m 256
 510 264 573 350 688 350 c 256
 803 350 866 264 866 170 c 256
 866 76 803 -10 688 -10 c 256
 573 -10 510 76 510 170 c 256
601 170 m 256
 601 119 633 75 688 75 c 256
 743 75 775 119 775 170 c 256
 775 221 743 265 688 265 c 256
 633 265 601 221 601 170 c 256
35 530 m 256
 35 624 98 710 213 710 c 256
 328 710 391 624 391 530 c 256
 391 436 328 350 213 350 c 256
 98 350 35 436 35 530 c 256
126 530 m 256
 126 479 158 435 213 435 c 256
 268 435 300 479 300 530 c 256
 300 581 268 625 213 625 c 256
 158 625 126 581 126 530 c 256
673 700 m 257
 788 700 l 257
 228 0 l 257
 113 0 l 257
 673 700 l 257
EndSplineSet
EndChar

StartChar: uni2031
Encoding: 8241 8241 110
GlifName: uni2031
Width: 1733
VWidth: 0
Flags: HW
LayerCount: 2
Fore
SplineSet
1342 170 m 256
 1342 264 1405 350 1520 350 c 256
 1635 350 1698 264 1698 170 c 256
 1698 76 1635 -10 1520 -10 c 256
 1405 -10 1342 76 1342 170 c 256
1433 170 m 256
 1433 119 1465 75 1520 75 c 256
 1575 75 1607 119 1607 170 c 256
 1607 221 1575 265 1520 265 c 256
 1465 265 1433 221 1433 170 c 256
926 170 m 256
 926 264 989 350 1104 350 c 256
 1219 350 1282 264 1282 170 c 256
 1282 76 1219 -10 1104 -10 c 256
 989 -10 926 76 926 170 c 256
1017 170 m 256
 1017 119 1049 75 1104 75 c 256
 1159 75 1191 119 1191 170 c 256
 1191 221 1159 265 1104 265 c 256
 1049 265 1017 221 1017 170 c 256
510 170 m 256
 510 264 573 350 688 350 c 256
 803 350 866 264 866 170 c 256
 866 76 803 -10 688 -10 c 256
 573 -10 510 76 510 170 c 256
601 170 m 256
 601 119 633 75 688 75 c 256
 743 75 775 119 775 170 c 256
 775 221 743 265 688 265 c 256
 633 265 601 221 601 170 c 256
35 530 m 256
 35 624 98 710 213 710 c 256
 328 710 391 624 391 530 c 256
 391 436 328 350 213 350 c 256
 98 350 35 436 35 530 c 256
126 530 m 256
 126 479 158 435 213 435 c 256
 268 435 300 479 300 530 c 256
 300 581 268 625 213 625 c 256
 158 625 126 581 126 530 c 256
673 700 m 257
 788 700 l 257
 228 0 l 257
 113 0 l 257
 673 700 l 257
EndSplineSet
EndChar

StartChar: cent
Encoding: 162 162 112
GlifName: cent
Width: 795
VWidth: 0
Flags: HW
LayerCount: 2
Fore
SplineSet
475 740 m 257
 515 740 l 257
 515 -80 l 257
 475 -80 l 257
 475 740 l 257
335 740 m 257
 375 740 l 257
 375 -80 l 257
 335 -80 l 257
 335 740 l 257
165 350 m 256
 165 202 257 90 435 90 c 256
 534 90 619 150 678 202 c 257
 740 115 l 257
 671 63 577 -10 435 -10 c 256
 192 -10 50 136 50 350 c 256
 50 564 192 710 435 710 c 256
 577 710 661 647 720 605 c 257
 659 516 l 257
 610 558 534 610 435 610 c 256
 257 610 165 498 165 350 c 256
EndSplineSet
EndChar

StartChar: yen
Encoding: 165 165 113
GlifName: yen
Width: 731
VWidth: 0
Flags: HW
LayerCount: 2
Fore
SplineSet
106 321 m 261
 106 361 l 261
 620 361 l 261
 620 321 l 261
 106 321 l 261
106 201 m 261
 106 241 l 261
 620 241 l 261
 620 201 l 261
 106 201 l 261
586 700 m 261
 721 700 l 261
 420 302 l 261
 420 0 l 261
 306 0 l 261
 306 301 l 261
 10 700 l 261
 150 700 l 261
 363 396 l 261
 586 700 l 261
EndSplineSet
EndChar

StartChar: sterling
Encoding: 163 163 114
GlifName: sterling
Width: 736
VWidth: 0
Flags: HW
LayerCount: 2
Fore
SplineSet
50 399 m 257
 50 439 l 257
 520 439 l 257
 520 399 l 257
 50 399 l 257
50 279 m 257
 50 319 l 257
 520 319 l 257
 520 279 l 257
 50 279 l 257
587 544 m 1
 553 575 487 620 371 620 c 0
 251 620 195 580 195 505 c 0
 195 402 259 391 259 279 c 0
 259 203 207 117 124 50 c 1
 109 60 l 1
 170 91 211 147 297 147 c 0
 423 147 436 87 553 87 c 0
 588 87 645 96 686 110 c 1
 686 0 l 1
 645 -14 578 -23 543 -23 c 0
 406 -23 373 42 247 42 c 0
 201 42 157 23 109 -15 c 1
 40 70 l 1
 93 127 152 203 152 259 c 0
 152 371 80 395 80 520 c 0
 80 650 194 720 378 720 c 0
 511 720 601 670 646 630 c 1
 587 544 l 1
EndSplineSet
EndChar

StartChar: brokenbar
Encoding: 166 166 115
GlifName: brokenbar
Width: 304
VWidth: 0
Flags: HW
LayerCount: 2
Fore
SplineSet
100 780 m 257
 204 780 l 257
 204 380 l 257
 100 380 l 257
 100 780 l 257
100 180 m 257
 204 180 l 257
 204 -220 l 257
 100 -220 l 257
 100 180 l 257
EndSplineSet
EndChar

StartChar: copyright
Encoding: 169 169 116
GlifName: copyright
Width: 930
Flags: HW
LayerCount: 2
Fore
SplineSet
50 375 m 0
 50 588 232 760 465 760 c 0
 698 760 880 588 880 375 c 0
 880 162 698 -10 465 -10 c 0
 232 -10 50 162 50 375 c 0
87 375 m 0
 87 181 251 26 465 26 c 0
 679 26 843 181 843 375 c 0
 843 569 679 724 465 724 c 0
 251 724 87 569 87 375 c 0
EndSplineSet
Refer: 3 67 N 0.6 0 0 0.6 184 170 2
EndChar

StartChar: registered
Encoding: 174 174 117
GlifName: registered
Width: 930
Flags: HW
LayerCount: 2
Fore
SplineSet
50 375 m 0
 50 588 232 760 465 760 c 0
 698 760 880 588 880 375 c 0
 880 162 698 -10 465 -10 c 0
 232 -10 50 162 50 375 c 0
87 375 m 0
 87 181 251 26 465 26 c 0
 679 26 843 181 843 375 c 0
 843 569 679 724 465 724 c 0
 251 724 87 569 87 375 c 0
EndSplineSet
Refer: 13 82 S 0.6 0 0 0.6 220 174 2
EndChar

StartChar: macron
Encoding: 175 175 119
GlifName: macron
Width: 369
Flags: HW
LayerCount: 2
Fore
SplineSet
20 385 m 257
 20 485 l 257
 349 485 l 257
 349 385 l 257
 20 385 l 257
EndSplineSet
EndChar

StartChar: plusminus
Encoding: 177 177 121
GlifName: plusminus
Width: 536
Flags: HW
LayerCount: 2
Fore
SplineSet
20 30 m 257
 20 130 l 257
 515 130 l 257
 515 30 l 257
 20 30 l 257
EndSplineSet
Refer: 77 43 N 1 0 0 1 -70 210 2
EndChar

StartChar: degree
Encoding: 176 176 122
GlifName: degree
Width: 319
Flags: HW
LayerCount: 2
Fore
SplineSet
40 680 m 0
 40 746 94 800 160 800 c 0
 226 800 280 746 280 680 c 0
 280 614 226 560 160 560 c 0
 94 560 40 614 40 680 c 0
94 680 m 0
 94 643 123 615 160 615 c 4
 197 615 225 643 225 680 c 0
 225 717 197 745 160 745 c 4
 123 745 94 717 94 680 c 0
EndSplineSet
EndChar

StartChar: circumflex
Encoding: 710 710 123
GlifName: circumflex
Width: 384
Flags: HW
AnchorPoint: "top" 192 700 mark 0
LayerCount: 2
Fore
SplineSet
192 884 m 257
 122 793 l 257
 22 793 l 257
 152 943 l 257
 232 943 l 257
 362 793 l 257
 262 793 l 257
 192 884 l 257
EndSplineSet
EndChar

StartChar: breve
Encoding: 728 728 125
GlifName: breve
Width: 279
VWidth: 1154
Flags: HW
AnchorPoint: "top" 140 700 mark 0
LayerCount: 2
Fore
SplineSet
65 919 m 1
 65 880 96 860 140 860 c 0
 184 860 215 880 215 919 c 1
 290 919 l 1
 290 838 240 790 140 790 c 0
 40 790 -10 838 -10 919 c 1
 65 919 l 1
EndSplineSet
EndChar

StartChar: ring
Encoding: 730 730 127
GlifName: ring
Width: 319
VWidth: 0
Flags: HW
AnchorPoint: "top" 160 700 mark 0
LayerCount: 2
Fore
SplineSet
70 850 m 4
 70 901 109 940 160 940 c 4
 211 940 250 901 250 850 c 4
 250 799 211 760 160 760 c 4
 109 760 70 799 70 850 c 4
110 850 m 4
 110 816 132 797 160 797 c 4
 188 797 211 816 211 850 c 4
 211 884 188 904 160 904 c 4
 132 904 110 884 110 850 c 4
EndSplineSet
EndChar

StartChar: ogonek
Encoding: 731 731 128
GlifName: ogonek
Width: 549
Flags: HW
AnchorPoint: "cedilla" 282 24 mark 0
LayerCount: 2
Fore
SplineSet
388 -114 m 1
 374 -142 343 -186 263 -186 c 0
 192 -186 155 -151 155 -91 c 0
 155 -11 243 23 304 43 c 1
 316 24 l 1
 285 7 258 -32 258 -75 c 0
 258 -112 282 -134 316 -134 c 0
 344 -134 365 -127 379 -108 c 1
 388 -114 l 1
EndSplineSet
EndChar

StartChar: tilde
Encoding: 732 732 129
GlifName: tilde
Width: 447
VWidth: 0
Flags: HW
AnchorPoint: "top" 234 750 mark 0
LayerCount: 2
Fore
SplineSet
120 836 m 257
 36 836 l 257
 34 843 33 866 33 875 c 256
 33 896 38.847501974 931.115134176 57 955 c 256
 76 980 106 997 147 997 c 256
 184 997 211.241744428 982.976059998 232 961 c 256
 252.424804688 939.376953125 279 902 304 902 c 256
 330 902 335 922 335 951 c 256
 335 959 332 973 328 983 c 257
 414 983 l 257
 416 975 418 950 418 940 c 256
 418 920 413.16015625 881.880859375 396 859 c 256
 378 835 366 822 320 822 c 256
 276 822 249.510742188 843.541015625 229 865 c 256
 210.203125 884.666015625 184 917 149 917 c 256
 118 917 111 888 111 863 c 256
 111 856 114 844 120 836 c 257
EndSplineSet
EndChar

StartChar: uni0304
Encoding: 772 772 135
GlifName: uni0304
Width: 0
Flags: HW
AnchorPoint: "top" -209 700 mark 0
LayerCount: 2
Fore
SplineSet
-329 800 m 257
 -329 880 l 257
 -89 880 l 257
 -89 800 l 257
 -329 800 l 257
EndSplineSet
EndChar

StartChar: uni0307
Encoding: 775 775 139
GlifName: uni0307
Width: 0
Flags: HW
LayerCount: 2
Fore
SplineSet
-230 576 m 0
 -230 600 -202 624 -178 624 c 0
 -151 624 -130 596 -130 572 c 0
 -130 551 -154 524 -182 524 c 0
 -206 524 -230 550 -230 576 c 0
EndSplineSet
EndChar

StartChar: cedilla
Encoding: 184 184 149
GlifName: cedilla
Width: 549
Flags: HW
AnchorPoint: "cedilla" 312 0 mark 0
LayerCount: 2
Fore
SplineSet
288 -168 m 0
 288 -127 241 -114 176 -114 c 1
 266 6 l 1
 310 6 l 1
 250 -74 l 1
 352 -77 399 -99 399 -155 c 0
 399 -205 341 -254 190 -254 c 1
 190 -218 l 1
 249 -218 288 -198 288 -168 c 0
EndSplineSet
EndChar

StartChar: logicalnot
Encoding: 172 172 150
GlifName: logicalnot
Width: 535
Flags: HW
LayerCount: 2
Fore
SplineSet
376 515 m 1
 60 515 l 1
 60 615 l 1
 476 615 l 1
 476 373 l 1
 376 373 l 1
 376 515 l 1
EndSplineSet
EndChar

StartChar: acute
Encoding: 180 180 155
GlifName: acute
Width: 375
VWidth: 0
Flags: HW
LayerCount: 2
Fore
SplineSet
304 656 m 257
 124 506 l 257
 65 555 l 257
 215 715 l 257
 304 656 l 257
EndSplineSet
EndChar

StartChar: Oslash
Encoding: 216 216 172
GlifName: O_slash
Width: 910
VWidth: 0
Flags: HW
LayerCount: 2
Fore
SplineSet
850 750 m 257
 175 -50 l 257
 55 -50 l 257
 730 750 l 257
 850 750 l 257
EndSplineSet
Refer: 1 79 N 1 0 0 1 0 0 2
EndChar

StartChar: AE
Encoding: 198 198 178
GlifName: A_E_
Width: 1196
VWidth: 0
Flags: HW
LayerCount: 2
Fore
SplineSet
179 200 m 257
 209 290 l 257
 579 290 l 257
 609 200 l 257
 179 200 l 257
572 700 m 257
 132 0 l 257
 10 0 l 257
 450 700 l 257
 572 700 l 257
607 0 m 257
 607 100 l 257
 1151 100 l 257
 1151 0 l 257
 607 0 l 257
607 600 m 257
 607 700 l 257
 1151 700 l 257
 1151 600 l 257
 607 600 l 257
607 310 m 257
 607 405 l 257
 981 405 l 257
 981 310 l 257
 607 310 l 257
535 700 m 257
 645 700 l 257
 645 0 l 257
 535 0 l 257
 535 700 l 257
EndSplineSet
EndChar

StartChar: paragraph
Encoding: 182 182 179
GlifName: paragraph
Width: 640
Flags: HW
LayerCount: 2
Fore
SplineSet
405 620 m 1
 405 700 l 1
 475 700 l 1
 475 620 l 1
 405 620 l 1
555 700 m 1
 555 -80 l 1
 475 -80 l 1
 475 700 l 1
 555 700 l 1
405 700 m 1
 405 -80 l 1
 325 -80 l 1
 325 700 l 1
 405 700 l 1
285 240 m 2
 145 240 50 325 50 470 c 0
 50 615 145 700 285 700 c 2
 365 700 l 1
 365 240 l 1
 285 240 l 2
EndSplineSet
EndChar

StartChar: uni1E9E
Encoding: 7838 7838 181
GlifName: uni1E_9E_
Width: 861
VWidth: 0
Flags: HW
LayerCount: 2
Fore
SplineSet
545 -12 m 0
 439 -12 351 21 295 56 c 1
 339 147 l 1
 389 118 471 84 531 84 c 0
 611 84 707 103 707 172 c 0
 707 276 493 243 493 369 c 0
 493 455 609 509 639 541 c 1
 609 569 531 611 422 611 c 0
 292 611 188 577 188 419 c 2
 190 0 l 1
 75 0 l 1
 75 430 l 2
 75 649 241 712 431 712 c 0
 598 712 731 614 793 546 c 5
 743 500 615 436 615 384 c 0
 615 312 831 335 831 179 c 0
 831 65 713 -12 545 -12 c 0
EndSplineSet
EndChar

StartChar: Thorn
Encoding: 222 222 183
GlifName: T_horn
Width: 753
VWidth: 0
Flags: HW
LayerCount: 2
Fore
SplineSet
85 700 m 257
 195 700 l 257
 195 0 l 257
 85 0 l 257
 85 700 l 257
132 471 m 257
 132 571 l 257
 480 571 l 258
 605 571 718 525 718 371 c 256
 718 218 605 171 480 171 c 258
 132 171 l 257
 132 271 l 257
 470 271 l 258
 559 271 603 305 603 371 c 256
 603 437 559 471 470 471 c 258
 132 471 l 257
EndSplineSet
EndChar

StartChar: Hbar
Encoding: 294 294 260
GlifName: H_bar
Width: 835
VWidth: 0
Flags: HW
LayerCount: 2
Fore
SplineSet
5 485 m 257
 5 585 l 257
 830 585 l 257
 830 485 l 257
 5 485 l 257
EndSplineSet
Refer: 0 72 N 1 0 0 1 0 0 2
EndChar

StartChar: Lslash
Encoding: 321 321 283
GlifName: L_slash
Width: 720
VWidth: 0
Flags: HW
LayerCount: 2
Fore
SplineSet
0 249 m 257
 0 369 l 257
 340 580 l 257
 340 460 l 257
 0 249 l 257
EndSplineSet
Refer: 9 76 N 1 0 0 1 0 0 2
EndChar

StartChar: Eng
Encoding: 330 330 291
GlifName: E_ng
Width: 792
VWidth: 0
Flags: HW
LayerCount: 2
Fore
SplineSet
190 499 m 257
 126 550 l 257
 211 640 311 720 454 720 c 256
 608 720 712 649 712 520 c 258
 712 440 l 257
 597 440 l 257
 597 495 l 258
 597 594 521 620 431 620 c 256
 325 620 234 570 190 499 c 257
85 700 m 257
 200 700 l 257
 200 0 l 257
 85 0 l 257
 85 700 l 257
357 137 m 257
 391 110 435 80 501 80 c 256
 561 80 597 106 597 165 c 258
 597 440 l 257
 712 440 l 257
 712 140 l 258
 712 31 608 -20 494 -20 c 256
 411 -20 341 20 296 50 c 257
 357 137 l 257
EndSplineSet
EndChar

StartChar: OE
Encoding: 338 338 313
GlifName: O_E_
Width: 1271
VWidth: 0
Flags: HW
LayerCount: 2
Fore
SplineSet
405 700 m 258
 720 700 l 257
 720 600 l 257
 415 600 l 258
 257 600 175 513 175 350 c 256
 175 187 257 100 415 100 c 258
 720 100 l 257
 720 0 l 257
 405 0 l 258
 201 0 55 131 55 350 c 256
 55 569 201 700 405 700 c 258
682 0 m 257
 682 100 l 257
 1226 100 l 257
 1226 0 l 257
 682 0 l 257
682 600 m 257
 682 700 l 257
 1226 700 l 257
 1226 600 l 257
 682 600 l 257
682 310 m 257
 682 405 l 257
 1056 405 l 257
 1056 310 l 257
 682 310 l 257
610 700 m 257
 720 700 l 257
 720 0 l 257
 610 0 l 257
 610 700 l 257
EndSplineSet
EndChar

StartChar: Tbar
Encoding: 358 358 324
GlifName: T_bar
Width: 685
VWidth: 0
Flags: HW
LayerCount: 2
Fore
SplineSet
110 305 m 257
 110 405 l 257
 575 405 l 257
 575 305 l 257
 110 305 l 257
EndSplineSet
Refer: 8 84 N 1 0 0 1 0 0 2
EndChar

StartChar: guillemotleft
Encoding: 171 171 346
GlifName: guillemotleft
Width: 522
VWidth: 0
Flags: HW
LayerCount: 2
Fore
SplineSet
318 259 m 1
 468 65 l 1
 401 12 l 1
 215 255 l 1
 401 498 l 1
 468 445 l 1
 318 259 l 1
141 259 m 1
 291 65 l 1
 223 12 l 1
 38 255 l 1
 223 498 l 1
 291 445 l 1
 141 259 l 1
EndSplineSet
EndChar

StartChar: guillemotright
Encoding: 187 187 347
GlifName: guillemotright
Width: 522
VWidth: 0
Flags: HW
LayerCount: 2
Fore
SplineSet
204 251 m 1
 54 445 l 1
 121 498 l 1
 307 255 l 1
 121 12 l 1
 54 65 l 1
 204 251 l 1
381 251 m 1
 231 445 l 1
 299 498 l 1
 484 255 l 1
 299 12 l 1
 231 65 l 1
 381 251 l 1
EndSplineSet
EndChar

StartChar: dagger
Encoding: 8224 8224 348
GlifName: dagger
Width: 594
VWidth: 0
Flags: HW
LayerCount: 2
Fore
SplineSet
90 540 m 1
 505 540 l 1
 505 450 l 1
 90 450 l 1
 90 540 l 1
245 700 m 1
 350 700 l 1
 350 -150 l 1
 245 -150 l 1
 245 700 l 1
EndSplineSet
EndChar

StartChar: daggerdbl
Encoding: 8225 8225 349
GlifName: daggerdbl
Width: 594
VWidth: 0
Flags: HW
LayerCount: 2
Fore
SplineSet
90 135 m 1
 505 135 l 1
 505 40 l 1
 90 40 l 1
 90 135 l 1
90 540 m 1
 505 540 l 1
 505 445 l 1
 90 445 l 1
 90 540 l 1
245 700 m 1
 350 700 l 1
 350 -150 l 1
 245 -150 l 1
 245 700 l 1
EndSplineSet
EndChar

StartChar: bullet
Encoding: 8226 8226 350
GlifName: bullet
Width: 300
VWidth: 0
Flags: HW
LayerCount: 2
Fore
SplineSet
84 426 m 0
 84 464 114 496 154 496 c 0
 194 496 225 464 225 426 c 0
 225 388 194 356 154 356 c 0
 114 356 84 388 84 426 c 0
EndSplineSet
EndChar

StartChar: guilsinglleft
Encoding: 8249 8249 351
GlifName: guilsinglleft
Width: 344
VWidth: 0
Flags: HW
LayerCount: 2
Fore
SplineSet
141 259 m 1
 291 65 l 1
 223 12 l 1
 38 255 l 1
 223 498 l 1
 291 445 l 1
 141 259 l 1
EndSplineSet
EndChar

StartChar: guilsinglright
Encoding: 8250 8250 352
GlifName: guilsinglright
Width: 344
VWidth: 0
Flags: HW
LayerCount: 2
Fore
SplineSet
203 251 m 1
 53 445 l 1
 121 498 l 1
 306 255 l 1
 121 12 l 1
 53 65 l 1
 203 251 l 1
EndSplineSet
EndChar

StartChar: Euro
Encoding: 8364 8364 354
GlifName: E_uro
Width: 900
VWidth: 0
Flags: HW
LayerCount: 2
Fore
SplineSet
5 399 m 257
 5 439 l 257
 475 439 l 257
 475 399 l 257
 5 399 l 257
5 279 m 257
 5 319 l 257
 475 319 l 257
 475 279 l 257
 5 279 l 257
190 350 m 256
 190 202 302 90 500 90 c 256
 619 90 724 150 783 202 c 257
 845 115 l 257
 776 63 662 -10 500 -10 c 256
 237 -10 75 136 75 350 c 256
 75 564 237 710 500 710 c 256
 662 710 766 647 825 605 c 257
 764 516 l 257
 715 558 619 610 500 610 c 256
 302 610 190 498 190 350 c 256
EndSplineSet
EndChar

